<svg width="56" height="55" viewBox="0 0 56 55" fill="none" xmlns="http://www.w3.org/2000/svg">
<path d="M25.0381 45.6346C25.3892 45.2085 26.0191 45.1478 26.4453 45.4989C26.9804 45.9396 27.5005 46.3773 28.0039 46.8084C28.5088 46.3801 29.03 45.9445 29.5664 45.5057C29.9939 45.156 30.6239 45.2188 30.9736 45.6463C31.3231 46.0737 31.2602 46.7039 30.833 47.0536C30.069 47.6785 29.34 48.2872 28.6562 48.8807C28.2787 49.2084 27.7166 49.2065 27.3408 48.8768C26.6604 48.2799 25.9348 47.6686 25.1738 47.0418C24.7476 46.6907 24.687 46.0609 25.0381 45.6346ZM37 39.4774C37.4228 39.1222 38.0539 39.1767 38.4092 39.5995C38.7644 40.0222 38.7097 40.6533 38.2871 41.0086C36.7813 42.2738 35.265 43.4899 33.8105 44.6541C33.3794 44.9992 32.7504 44.929 32.4053 44.4979C32.0603 44.0668 32.1295 43.4377 32.5605 43.0926C34.0161 41.9274 35.5147 40.7253 37 39.4774ZM17.6084 39.5819C17.9635 39.159 18.5947 39.1038 19.0176 39.4588C20.503 40.7063 22.0012 41.9097 23.4561 43.078C23.8862 43.4237 23.9548 44.0527 23.6094 44.4832C23.2636 44.9138 22.6337 44.9833 22.2031 44.6375C20.751 43.4714 19.2364 42.2549 17.7314 40.9911C17.3085 40.6359 17.2533 40.0048 17.6084 39.5819ZM43.8721 33.0067C44.2427 32.5974 44.8748 32.5659 45.2842 32.9364C45.6935 33.307 45.725 33.9391 45.3545 34.3485C44.0599 35.7781 42.655 37.1498 41.2061 38.4657C40.7973 38.8368 40.1652 38.8069 39.7939 38.3983C39.4227 37.9894 39.4534 37.3565 39.8623 36.9852C41.2766 35.7008 42.6321 34.3759 43.8721 33.0067ZM10.7266 32.9276C11.1353 32.5564 11.7673 32.5865 12.1387 32.995C13.3805 34.3621 14.7383 35.6852 16.1543 36.9686C16.5635 37.3395 16.5945 37.9725 16.2236 38.3817C15.8527 38.7908 15.2197 38.8219 14.8105 38.451C13.3605 37.1367 11.9545 35.7668 10.6582 34.3397C10.2872 33.9309 10.3179 33.2988 10.7266 32.9276ZM49.0186 25.3719C49.2354 24.864 49.8232 24.6279 50.3311 24.8446C50.839 25.0614 51.0752 25.6491 50.8584 26.1571C50.0895 27.9582 49.0576 29.6752 47.8525 31.3114C47.525 31.7559 46.8987 31.8508 46.4541 31.5233C46.0095 31.1957 45.9147 30.5695 46.2422 30.1248C47.3759 28.5854 48.3225 27.0024 49.0186 25.3719ZM5.66992 24.8436C6.17763 24.6264 6.76609 24.8613 6.9834 25.369C7.68069 26.9987 8.62872 28.5805 9.76465 30.118C10.0928 30.5622 9.99889 31.1883 9.55469 31.5164C9.11049 31.8446 8.48443 31.7507 8.15625 31.3065C6.94885 29.6722 5.915 27.9569 5.14453 26.1561C4.92734 25.6485 5.16242 25.061 5.66992 24.8436ZM3.66699 19.2498C3.66684 18.172 3.79923 17.1077 4.05469 16.078C4.18767 15.542 4.72962 15.2155 5.26563 15.3485C5.80162 15.4815 6.12901 16.0234 5.99609 16.5594C5.77936 17.433 5.66684 18.3357 5.66699 19.2498C5.66699 20.1571 5.75407 21.0478 5.91895 21.9227C6.02123 22.4654 5.66382 22.9884 5.12109 23.0907C4.57855 23.1927 4.05549 22.8363 3.95313 22.2938C3.76605 21.3012 3.66699 20.2861 3.66699 19.2498ZM50.334 19.2498C50.3341 18.3357 50.2216 17.433 50.0049 16.5594C49.872 16.0236 50.1987 15.4817 50.7344 15.3485C51.2704 15.2155 51.8133 15.5419 51.9463 16.078C52.2017 17.1077 52.3341 18.172 52.334 19.2498C52.334 20.2858 52.2339 21.3007 52.0469 22.2938C51.9446 22.8363 51.4224 23.1935 50.8799 23.0916C50.3371 22.9894 49.9798 22.4664 50.082 21.9237C50.2469 21.048 50.334 20.157 50.334 19.2498ZM10.3174 7.75082C10.7941 7.47231 11.4068 7.63264 11.6855 8.10922C11.9643 8.586 11.803 9.19864 11.3262 9.47738C10.5365 9.93904 9.79994 10.4952 9.13379 11.1375C8.4725 11.7752 7.89727 12.4821 7.41602 13.2411C7.12022 13.7074 6.50251 13.8454 6.03613 13.5496C5.56992 13.2538 5.43183 12.6361 5.72754 12.1698C6.29361 11.2771 6.96909 10.4464 7.74512 9.69808C8.52711 8.94402 9.39206 8.29179 10.3174 7.75082ZM44.3154 8.10922C44.5942 7.63266 45.2069 7.47217 45.6836 7.75082C46.6089 8.29178 47.4729 8.94403 48.2549 9.69808C49.0311 10.4466 49.7073 11.2769 50.2734 12.1698C50.5691 12.636 50.4309 13.2538 49.9648 13.5496C49.4984 13.8454 48.8797 13.7075 48.584 13.2411C48.1028 12.4822 47.5283 11.7751 46.8672 11.1375C46.201 10.4951 45.4635 9.93906 44.6738 9.47738C44.1973 9.19856 44.0368 8.58589 44.3154 8.10922ZM30.1416 8.33285C30.6041 8.03097 31.2235 8.16138 31.5254 8.62387C31.827 9.08632 31.6968 9.70584 31.2344 10.0077C30.3225 10.6029 29.4829 11.314 28.7402 12.1307C28.5507 12.3391 28.2817 12.4588 28 12.4588C27.7184 12.4587 27.4502 12.339 27.2607 12.1307C26.5179 11.3139 25.6777 10.603 24.7656 10.0077C24.3033 9.70578 24.1738 9.0863 24.4756 8.62387C24.7775 8.16138 25.3969 8.03097 25.8594 8.33285C26.6199 8.82929 27.3366 9.39666 28 10.0291C28.6636 9.39646 29.3809 8.82941 30.1416 8.33285ZM17.5186 5.87484L17.5176 5.87582C18.7869 5.87107 20.0391 6.02363 21.2471 6.32406C21.783 6.45734 22.1097 7.00009 21.9766 7.53598C21.8433 8.07183 21.3005 8.39857 20.7646 8.26547C19.7097 8.00308 18.6153 7.86908 17.5059 7.87484C17.4981 7.87488 17.4901 7.87498 17.4824 7.87484C16.5528 7.85793 15.6324 7.95106 14.7402 8.14633C14.2008 8.26417 13.6679 7.92205 13.5498 7.38265C13.4319 6.84335 13.7733 6.31047 14.3125 6.19223C15.356 5.96384 16.432 5.85508 17.5186 5.87484ZM38.4824 5.87484C39.5688 5.8551 40.6442 5.9639 41.6875 6.19223C42.2269 6.31029 42.5691 6.84323 42.4512 7.38265C42.3331 7.92217 41.7993 8.26441 41.2598 8.14633C40.3677 7.9511 39.448 7.85794 38.5186 7.87484C38.5108 7.87498 38.5029 7.87488 38.4951 7.87484C37.3856 7.86906 36.2914 8.00306 35.2363 8.26547C34.7004 8.39875 34.1577 8.07192 34.0244 7.53598C33.8912 7.00006 34.218 6.45735 34.7539 6.32406C35.9616 6.02373 37.2135 5.87015 38.4824 5.87484Z" fill="#B42E52" fill-opacity="0.5"/>
</svg>
